<svg width="12" height="12" viewBox="0 0 12 12" fill="none" xmlns="http://www.w3.org/2000/svg">
<path d="M8.75169 0H3.24828C1.45715 0 0 1.45715 0 3.24828V8.75178C0 10.5428 1.45715 12 3.24828 12H8.75178C10.5428 12 12 10.5428 12 8.75178V3.24828C12 1.45715 10.5428 0 8.75169 0V0ZM5.99999 9.28114C4.19073 9.28114 2.71884 7.80925 2.71884 5.99999C2.71884 4.19073 4.19073 2.71884 5.99999 2.71884C7.80925 2.71884 9.28114 4.19073 9.28114 5.99999C9.28114 7.80925 7.80925 9.28114 5.99999 9.28114ZM9.3596 3.49264C8.82493 3.49264 8.39006 3.05776 8.39006 2.5231C8.39006 1.98843 8.82493 1.55346 9.3596 1.55346C9.89427 1.55346 10.3292 1.98843 10.3292 2.5231C10.3292 3.05776 9.89427 3.49264 9.3596 3.49264Z" fill="white"/>
<path d="M9.3598 2.25684C9.21313 2.25684 9.09375 2.37622 9.09375 2.52289C9.09375 2.66955 9.21313 2.78894 9.3598 2.78894C9.50656 2.78894 9.62594 2.66965 9.62594 2.52289C9.62594 2.37613 9.50656 2.25684 9.3598 2.25684Z" fill="white"/>
<path d="M6 4C4.89725 4 4 4.89718 4 6C4 7.10275 4.89725 8 6 8C7.10282 8 8 7.10275 8 6C8 4.89718 7.10282 4 6 4Z" fill="white"/>
</svg>
