<svg width="14" height="14" viewBox="0 0 14 14" fill="none" xmlns="http://www.w3.org/2000/svg">
<path d="M9.28125 7.07166L14.001 10.0554V3.96191L9.28125 7.07166Z" fill="black"/>
<path d="M0 3.96191V10.0554L4.71975 7.07166L0 3.96191Z" fill="black"/>
<path d="M13.1261 2.1875H0.876094C0.439469 2.1875 0.0929688 2.513 0.0273438 2.93213L7.00109 7.52675L13.9748 2.93213C13.9092 2.513 13.5627 2.1875 13.1261 2.1875Z" fill="black"/>
<path d="M8.47809 7.60048L7.23997 8.41598C7.16647 8.46411 7.08334 8.48773 6.99934 8.48773C6.91534 8.48773 6.83222 8.46411 6.75872 8.41598L5.52059 7.59961L0.0273438 11.0742C0.0947187 11.4899 0.439469 11.8127 0.874344 11.8127H13.1243C13.5592 11.8127 13.904 11.4899 13.9713 11.0742L8.47809 7.60048Z" fill="black"/>
</svg>
