<svg width="9" height="15" viewBox="0 0 9 15" fill="none" xmlns="http://www.w3.org/2000/svg">
<path d="M0.132605 7.53697C-0.235248 8.34576 0.182412 8.73236 1.13535 9.39282C1.94546 9.95259 3.06462 10.1573 3.78352 10.2392C3.48888 10.556 4.83907 9.10353 0.950521 13.2871C0.126004 14.171 1.45339 15.5892 2.27731 14.7241L4.50783 12.3179C5.36175 13.2367 6.18027 14.1173 6.73835 14.7274C7.56286 15.596 8.88965 14.1898 8.07413 13.2904C8.01293 13.2253 5.0515 10.0479 5.23213 10.2425C5.96003 10.1607 7.06239 9.94386 7.86291 9.39617L7.8623 9.3955C8.81524 8.73169 9.2329 8.34576 8.87045 7.53697C8.65142 7.07788 8.06093 6.69396 7.27482 7.35777C7.27482 7.35777 6.21327 8.26723 4.50123 8.26723C2.78858 8.26723 1.72763 7.35777 1.72763 7.35777C0.94212 6.6906 0.349236 7.07788 0.132605 7.53697Z" fill="white"/>
<path d="M4.50028 7C6.42684 7 8 5.43304 8 3.50404C8 1.56696 6.42684 0 4.50028 0C2.57316 0 1 1.56696 1 3.50404C1 5.43304 2.57316 7 4.50028 7ZM4.50028 1.77508C5.44694 1.77508 6.21912 2.54818 6.21912 3.50404C6.21912 4.45182 5.44694 5.22492 4.50028 5.22492C3.55361 5.22492 2.78144 4.45182 2.78144 3.50404C2.78088 2.5476 3.55306 1.77508 4.50028 1.77508Z" fill="white"/>
</svg>
