<svg width="12" height="14" viewBox="0 0 12 14" fill="none" xmlns="http://www.w3.org/2000/svg">
<path d="M6.19017 0.000488281C2.35242 0.00107161 0.3125 2.45982 0.3125 5.14082C0.3125 6.3839 1.00725 7.93499 2.11967 8.42674C2.437 8.56965 2.395 8.39524 2.668 7.35107C2.68958 7.26415 2.6785 7.1889 2.6085 7.10782C1.01833 5.26857 2.29817 1.4874 5.96325 1.4874C11.2675 1.4874 10.2764 8.8269 6.88608 8.8269C6.01225 8.8269 5.36125 8.1409 5.56717 7.29215C5.81683 6.28124 6.30567 5.19449 6.30567 4.4659C6.30567 2.62957 3.56983 2.90199 3.56983 5.33507C3.56983 6.08699 3.83583 6.59449 3.83583 6.59449C3.83583 6.59449 2.95558 10.1505 2.79225 10.8149C2.51575 11.9396 2.82958 13.7602 2.857 13.9171C2.87392 14.0034 2.97075 14.0308 3.025 13.9597C3.11192 13.8459 4.17592 12.3281 4.474 11.2308C4.5825 10.8312 5.02758 9.20957 5.02758 9.20957C5.321 9.73924 6.16683 10.1826 7.06808 10.1826C9.74908 10.1826 11.6869 7.8259 11.6869 4.90166C11.6776 2.09816 9.27833 0.000488281 6.19017 0.000488281V0.000488281Z" fill="white"/>
</svg>
