<svg width="14" height="11" viewBox="0 0 14 11" fill="none" xmlns="http://www.w3.org/2000/svg">
<path d="M12.1643 2.99385C12.6929 2.63846 13.1376 2.19487 13.5 1.6841C13.0163 1.88462 12.5017 2.01744 11.9644 2.08205C12.5169 1.76974 12.9388 1.27897 13.1371 0.687692C12.622 0.978462 12.0532 1.18359 11.4471 1.29846C10.958 0.805128 10.2608 0.5 9.50033 0.5C8.02483 0.5 6.83696 1.63385 6.83696 3.02359C6.83696 3.22359 6.85483 3.4159 6.89871 3.59897C4.68329 3.49641 2.72246 2.49128 1.40513 0.959487C1.17546 1.33744 1.04004 1.76974 1.04004 2.23487C1.04004 3.10872 1.51508 3.88308 2.22413 4.3318C1.79567 4.3241 1.37587 4.20615 1.02 4.02103V4.04872C1.02 5.27487 1.94354 6.29333 3.15525 6.52821C2.93804 6.58462 2.70187 6.61128 2.4565 6.61128C2.28588 6.61128 2.11363 6.60205 1.95221 6.56821C2.29725 7.56718 3.27767 8.30205 4.44225 8.32615C3.5355 8.99744 2.38392 9.40205 1.13754 9.40205C0.91925 9.40205 0.709625 9.39282 0.5 9.36769C1.68083 10.0882 3.07942 10.5 4.5885 10.5C9.29179 10.5 12.3571 6.78513 12.1643 2.99385Z" fill="white"/>
</svg>
