<svg width="14" height="10" viewBox="0 0 14 10" fill="none" xmlns="http://www.w3.org/2000/svg">
<path d="M11.6171 5.59999C11.3908 5.31416 11.4555 5.18699 11.6171 4.93149C11.62 4.92858 13.4884 2.34674 13.6809 1.47116L13.6821 1.47058C13.7778 1.15149 13.6821 0.916992 13.2195 0.916992H11.6888C11.2992 0.916992 11.1195 1.11824 11.0233 1.34341C11.0233 1.34341 10.2439 3.20891 9.14142 4.41816C8.78558 4.76758 8.62108 4.87958 8.42683 4.87958C8.33117 4.87958 8.18242 4.76758 8.18242 4.44849V1.47058C8.18242 1.08791 8.07333 0.916992 7.75075 0.916992H5.34392C5.0995 0.916992 4.95425 1.09549 4.95425 1.26174C4.95425 1.62458 5.5055 1.70799 5.56267 2.72883V4.94374C5.56267 5.42908 5.47458 5.51833 5.27917 5.51833C4.75883 5.51833 3.49592 3.64524 2.7475 1.50149C2.59642 1.08558 2.44883 0.917575 2.05625 0.917575H0.525C0.0880833 0.917575 0 1.11883 0 1.34399C0 1.74183 0.520333 3.71991 2.41967 6.33324C3.6855 8.11708 5.46817 9.08366 7.08983 9.08366C8.06458 9.08366 8.18358 8.86899 8.18358 8.49974C8.18358 6.79524 8.0955 6.63424 8.58375 6.63424C8.81008 6.63424 9.19975 6.74624 10.1098 7.60666C11.1498 8.62691 11.3208 9.08366 11.9029 9.08366H13.4336C13.8699 9.08366 14.091 8.86899 13.9638 8.44549C13.6728 7.55474 11.7058 5.72249 11.6171 5.59999Z" fill="white"/>
</svg>
