<svg width="14" height="10" viewBox="0 0 14 10" fill="none" xmlns="http://www.w3.org/2000/svg">
<path d="M13.6903 8.57117L13.7078 8.45588C13.5386 9.06117 13.0818 9.52823 12.5014 9.69823L12.4892 9.70117C11.3978 9.99999 7.00592 9.99999 7.00592 9.99999C7.00592 9.99999 2.62514 10.0059 1.52265 9.70117C0.93116 9.52823 0.473833 9.06117 0.307585 8.46823L0.304668 8.45588C-0.103077 6.30823 -0.105994 3.72764 0.322751 1.42823L0.304668 1.5447C0.473833 0.93941 0.930577 0.472352 1.51099 0.302353L1.52324 0.299412C2.61347 0 7.0065 0 7.0065 0C7.0065 0 11.3867 0 12.4898 0.299412C13.0818 0.472353 13.5392 0.93941 13.7054 1.53235L13.7083 1.5447C13.8938 2.54353 14 3.69294 14 4.86705C14 4.91 14 4.95353 13.9994 4.99705C14 5.03705 14 5.0847 14 5.13235C14 6.30705 13.8938 7.45646 13.6903 8.57117ZM5.60477 2.85235V7.14235L9.25989 4.99411L5.60477 2.85235Z" fill="white"/>
</svg>
